<svg width="139.9" height="139.9" clip-rule="evenodd" fill-rule="evenodd" image-rendering="optimizeQuality" shape-rendering="geometricPrecision" text-rendering="geometricPrecision" version="1.1" viewBox="0 0 139.9 139.9" xml:space="preserve" xmlns="http://www.w3.org/2000/svg">
<path d="m42.07 0-3.387 4.8-2.46 7.292-2.07-0.5468-3.816 2.424-0.7185 11.2-1.071 2.495 0.4245 8.913-0.1858 4.142-9.594 1.008-14.72-4.201-3.69 2.661 0.9996 5.788 3.416 6.896-1.85 1.077-0.9843 4.412 7.412 8.428 1.007 2.521 6.602 6.003 2.799 3.061-6.072 7.496-13.38 7.439-0.7279 4.492 4.8 3.386 7.292 2.46-0.5468 2.07 2.424 3.816 11.2 0.7185 2.495 1.071 8.913-0.4234 4.142 0.1861 1.008 9.594-4.201 14.72 2.661 3.69 5.788-0.9996 6.896-3.416 1.077 1.85 4.412 0.9843 8.428-7.412 2.521-1.007 6.003-6.602 3.061-2.798 7.496 6.07 7.439 13.38 4.492 0.7279 3.386-4.799 2.46-7.292 2.07 0.5456 3.816-2.424 0.7185-11.2 1.071-2.494-0.4233-8.914 0.1858-4.142 9.594-1.008 14.72 4.202 3.69-2.662-0.9996-5.788-3.416-6.896 1.85-1.076 0.9843-4.413-7.412-8.428-1.007-2.521-6.602-6.003-2.798-3.06 6.07-7.497 13.38-7.439 0.7279-4.491-4.799-3.387-7.292-2.46 0.5457-2.07-2.424-3.816-11.2-0.7185-2.494-1.071-8.914 0.4245-4.142-0.1858-1.008-9.594 4.202-14.72-2.661-3.69-5.789 0.9996-6.896 3.416-1.076-1.85-4.413-0.9843-8.428 7.412-2.521 1.007-6.003 6.602-3.06 2.798-7.497-6.07-7.439-13.38z"/></svg>
