<svg width="55.92" height="73.6" clip-rule="evenodd" fill-rule="evenodd" image-rendering="optimizeQuality" shape-rendering="geometricPrecision" text-rendering="geometricPrecision" version="1.1" viewBox="0 0 55.92 73.6" xml:space="preserve" xmlns="http://www.w3.org/2000/svg">
<path d="m27.96 73.6c-1.107-0.0347-2.082-1.787-2.504-2.71-7.798-16.16-15.19-33.64-21.29-50.82-1.598-2.716-3.228-5.454-3.743-7.448l-0.4197-3.471 3.059-0.1546 5.603 1.558-0.1307-7.447 1.013-0.0117 0.01008-3.094 11.2 0.1079 0.1153 2.311 6.58 0.0277v-0.9248l0.5104 3e-3 0.5104-3e-3v0.9248l6.58-0.0277 0.1153-2.311 11.2-0.1079 0.01008 3.094 1.013 0.0117-0.1307 7.447 5.603-1.558 3.059 0.1546-0.4197 3.471c-0.5144 1.994-2.145 4.732-3.743 7.448-6.1 17.18-13.49 34.66-21.29 50.82-0.4221 0.9231-1.397 2.675-2.504 2.71z"    /></svg>
