<svg width="25.5" height="29.8" clip-rule="evenodd" fill-rule="evenodd" image-rendering="optimizeQuality" shape-rendering="geometricPrecision" text-rendering="geometricPrecision" version="1.1" viewBox="0 0 25.5 29.8" xml:space="preserve" xmlns="http://www.w3.org/2000/svg">
<path d="m10.87 29.8 0.4582-1.963h2.843l0.4582 1.963 0.8816-3e-3 1.518-2.139 5.686-16.35-0.6748-0.928 2.004-0.258 1.456-2.098-0.1568-6.355-1.242-0.0401-0.1683-1.625-2.772 8.4e-4 -0.1595 1.586-0.7323 0.011-7e-3 1.781-0.7811 2e-3 9e-3 -0.5682-4.524-1.737-0.9122-1.068-1.304 0.8777-1.303-0.8777-0.9122 1.068-4.524 1.737 9e-3 0.5682-0.7811-2e-3 -7e-3 -1.781-0.7322-0.011-0.1595-1.586-2.772-8.4e-4 -0.1683 1.625-1.242 0.0401-0.1568 6.355 1.456 2.098 2.004 0.258-0.6748 0.928 5.686 16.35 1.518 2.139z"/></svg>
