<svg width="89.1" height="167.8" clip-rule="evenodd" fill-rule="evenodd" image-rendering="optimizeQuality" shape-rendering="geometricPrecision" text-rendering="geometricPrecision" version="1.1" viewBox="0 0 89.1 167.8" xml:space="preserve" xmlns="http://www.w3.org/2000/svg">
<path d="m39.86 167.8-3.86-3.065-6.306-36.03-1.376-1.592-1.217-7.088 0.6233-0.5148 1.793 0.0174-2.975-14.22-1.06-1.583-4.139-19.3-0.8805 0.1365-3.877-15.75 0.9834-0.3813-1.155-6.05-12.09-15.17-4.287-1.467-0.03469-9.143 3.905-1.756 6.839-34.85 13.05 3.976 0.04606 3.084 4.164 0.0999 11.62-5.597 2.749 1.995-0.08973 8.075 2.261 0.0252 2.261-0.0252-0.0897-8.075 2.749-1.995 11.62 5.597 4.164-0.0999 0.0461-3.084 13.05-3.976 6.839 34.85 3.905 1.756-0.0347 9.143-4.287 1.467-12.09 15.17-1.305 6.652 0.9834 0.261-3.727 15.27-0.8805-0.1365-4.139 19.3-1.06 1.583-2.975 14.22 1.793-0.0174 0.6233 0.5148-1.217 7.088-1.376 1.592-6.306 36.03-3.86 3.065-4.692-0.0301z"  fill-opacity=".9997"   /></svg>
